{
  "accessors": [
    {
      "bufferView": 2,
      "componentType": 5126,
      "count": 32535,
      "max": [
        2.5789361000061035,
        6.5711770057678223,
        -0.43148899078369141
      ],
      "min": [
        1.4663909673690796,
        5.7999091148376465,
        -1.1051559448242188
      ],
      "type": "VEC3"
    },
    {
      "bufferView": 2,
      "byteOffset": 390420,
      "componentType": 5126,
      "count": 32535,
      "max": [
        0.99987709522247314,
        0.99998730421066284,
        0.9999692440032959
      ],
      "min": [
        -0.99996113777160645,
        -0.99991512298583984,
        -0.99997758865356445
      ],
      "type": "VEC3"
    },
    {
      "bufferView": 1,
      "componentType": 5126,
      "count": 32535,
      "max": [
        0.9900209903717041,
        0.99995297193527222
      ],
      "min": [
        5.7000001106644049e-05,
        9.0000003183376975e-06
      ],
      "type": "VEC2"
    },
    {
      "bufferView": 0,
      "componentType": 5125,
      "count": 180000,
      "max": [
        32534
      ],
      "min": [
        0
      ],
      "type": "SCALAR"
    }
  ],
  "asset": {
    "extras": {
      "author": "Museo Nacional de Historia Natural de Chile (https://sketchfab.com/MNHNcl)",
      "license": "CC0-1.0 (http://creativecommons.org/publicdomain/zero/1.0/)",
      "source": "https://sketchfab.com/3d-models/ctenomys-fulvus-1112-57f686ab58da4a10bd66770b452593cd",
      "title": "Ctenomys fulvus 1112"
    },
    "generator": "Sketchfab-7.80.0",
    "version": "2.0"
  },
  "bufferViews": [
    {
      "buffer": 0,
      "byteLength": 720000,
      "byteOffset": 0,
      "name": "floatBufferViews",
      "target": 34963
    },
    {
      "buffer": 0,
      "byteLength": 260280,
      "byteOffset": 720000,
      "byteStride": 8,
      "name": "floatBufferViews",
      "target": 34962
    },
    {
      "buffer": 0,
      "byteLength": 780840,
      "byteOffset": 980280,
      "byteStride": 12,
      "name": "floatBufferViews",
      "target": 34962
    }
  ],
  "buffers": [
    {
      "byteLength": 1761120,
      "uri": "scene.bin"
    }
  ],
  "images": [
    {
      "uri": "textures/ZV-04.1001_baseColor.jpeg"
    }
  ],
  "materials": [
    {
      "doubleSided": true,
      "emissiveFactor": [
        0.56344696969696972,
        0.56344696969696972,
        0.56344696969696972
      ],
      "emissiveTexture": {
        "index": 0,
        "texCoord": 0
      },
      "name": "ZV-04.1001",
      "pbrMetallicRoughness": {
        "baseColorFactor": [
          1,
          1,
          1,
          1
        ],
        "baseColorTexture": {
          "index": 0,
          "texCoord": 0
        },
        "metallicFactor": 0,
        "roughnessFactor": 1
      }
    }
  ],
  "meshes": [
    {
      "primitives": [
        {
          "attributes": {
            "NORMAL": 1,
            "POSITION": 0,
            "TEXCOORD_0": 2
          },
          "indices": 3,
          "material": 0,
          "mode": 4
        }
      ]
    }
  ],
  "nodes": [
    {
      "children": [
        1
      ],
      "name": "RootNode (gltf orientation matrix)",
      "rotation": [
        -0.70710678118654746,
        -0,
        -0,
        0.70710678118654757
      ]
    },
    {
      "children": [
        2
      ],
      "name": "RootNode (model correction matrix)"
    },
    {
      "children": [
        3
      ],
      "name": "ZV-04.obj.cleaner.materialmerger.gles"
    },
    {
      "mesh": 0,
      "name": ""
    }
  ],
  "samplers": [
    {
      "magFilter": 9729,
      "minFilter": 9987,
      "wrapS": 10497,
      "wrapT": 10497
    }
  ],
  "scene": 0,
  "scenes": [
    {
      "name": "OSG_Scene",
      "nodes": [
        0
      ]
    }
  ],
  "textures": [
    {
      "sampler": 0,
      "source": 0
    }
  ]
}

